# xmcd
#
# Track frame offsets: 
#        150
#        18037
#        47272
#        62490
#        76872
#        107327
#        133755
#        173450
#        190037
#        203782
#        217270
#        242665
#        259057
#        270640
#
# Disc length: 4428 seconds
#
# Revision: 0
# Processed by: cddbd v1.5.2PL0 Copyright (c) Steve Scherf et al.
# Submitted via: ExactAudioCopy v0.95b3
#
DISCID=af114a0e
DTITLE=Jimi Hendrix  - Guest Experience (Westwood One Radio Networks-R
DTITLE=arities on Compact Disc Vol.77)  FLAC
DYEAR=1900
DGENRE=
TTITLE0=So Much
TTITLE1=Ex Art Student
TTITLE2=Rock and Roll Band
TTITLE3=Yes, I Need Someone
TTITLE4=The Clown
TTITLE5=Morning Glory
TTITLE6=Mr Guy Fawkes
TTITLE7=Doriella Du Fontaine
TTITLE8=Old Times Good Times
TTITLE9=The Everlasting First
TTITLE10=Slow Walkin' Talk
TTITLE11=Captive In The Sun
TTITLE12=Someone Is Sure To (Want You)
TTITLE13=Live Anbd Let Live
EXTD=
EXTT0=
EXTT1=
EXTT2=
EXTT3=
EXTT4=
EXTT5=
EXTT6=
EXTT7=
EXTT8=
EXTT9=
EXTT10=
EXTT11=
EXTT12=
EXTT13=
PLAYORDER=
